<svg viewBox="0 0 1700 560" xmlns="http://www.w3.org/2000/svg" font-family="'Segoe UI', Arial, sans-serif">
  <defs>
    <linearGradient id="bg" x1="0%" y1="0%" x2="0%" y2="100%">
      <stop offset="0%" style="stop-color:#f5f7fc"/>
      <stop offset="100%" style="stop-color:#e8edf8"/>
    </linearGradient>
    <filter id="shadow">
      <feDropShadow dx="0" dy="3" stdDeviation="5" flood-color="#000" flood-opacity="0.13"/>
    </filter>
    <filter id="laneShadow">
      <feDropShadow dx="0" dy="2" stdDeviation="8" flood-color="#000" flood-opacity="0.08"/>
    </filter>
    <marker id="arr" markerWidth="10" markerHeight="7" refX="9" refY="3.5" orient="auto">
      <polygon points="0 0, 10 3.5, 0 7" fill="#475569"/>
    </marker>
    <marker id="arrBlue" markerWidth="10" markerHeight="7" refX="9" refY="3.5" orient="auto">
      <polygon points="0 0, 10 3.5, 0 7" fill="#0078d4"/>
    </marker>
    <marker id="arrOrange" markerWidth="10" markerHeight="7" refX="9" refY="3.5" orient="auto">
      <polygon points="0 0, 10 3.5, 0 7" fill="#e07b00"/>
    </marker>
  </defs>

  <!-- BG -->
  <rect width="1700" height="560" fill="url(#bg)"/>
  <!-- subtle grid -->
  <pattern id="grid" width="32" height="32" patternUnits="userSpaceOnUse">
    <path d="M 32 0 L 0 0 0 32" fill="none" stroke="#c8d0e0" stroke-width="0.3"/>
  </pattern>
  <rect width="1700" height="560" fill="url(#grid)" opacity="0.5"/>

  <!-- ═══ TITLE ═══ -->
  <text x="850" y="36" text-anchor="middle" font-size="18" font-weight="700" fill="#1e293b" letter-spacing="0.5">Azure Data Engineering — End-to-End Pipeline Architecture</text>
  <line x1="340" y1="45" x2="1360" y2="45" stroke="#94a3b8" stroke-width="0.8" opacity="0.5"/>

  <!-- ═══ SWIM LANES ═══ -->
  <!-- Lane 1: Data Source -->
  <rect x="18" y="58" width="290" height="430" rx="14" fill="#ffffff" stroke="#cbd5e1" stroke-width="1.5" filter="url(#laneShadow)"/>
  <rect x="18" y="58" width="290" height="34" rx="14" fill="#1e40af" opacity="0.08"/>
  <rect x="18" y="80" width="290" height="12" fill="#1e40af" opacity="0.05"/>
  <text x="163" y="82" text-anchor="middle" font-size="12.5" font-weight="700" fill="#1e3a8a" letter-spacing="1">DATA SOURCE</text>

  <!-- Lane 2: Ingestion -->
  <rect x="322" y="58" width="270" height="430" rx="14" fill="#fffbf0" stroke="#fde68a" stroke-width="1.5" filter="url(#laneShadow)"/>
  <rect x="322" y="58" width="270" height="34" rx="14" fill="#92400e" opacity="0.08"/>
  <rect x="322" y="80" width="270" height="12" fill="#92400e" opacity="0.05"/>
  <text x="457" y="82" text-anchor="middle" font-size="12.5" font-weight="700" fill="#78350f" letter-spacing="1">INGESTION</text>

  <!-- Lane 3: Data Lake -->
  <rect x="606" y="58" width="290" height="430" rx="14" fill="#f0f8ff" stroke="#93c5fd" stroke-width="1.5" filter="url(#laneShadow)"/>
  <rect x="606" y="58" width="290" height="34" rx="14" fill="#1d4ed8" opacity="0.08"/>
  <rect x="606" y="80" width="290" height="12" fill="#1d4ed8" opacity="0.05"/>
  <text x="751" y="82" text-anchor="middle" font-size="12.5" font-weight="700" fill="#1e3a8a" letter-spacing="1">DATA LAKE</text>

  <!-- Lane 4: Warehouse -->
  <rect x="910" y="58" width="772" height="430" rx="14" fill="#faf5ff" stroke="#c4b5fd" stroke-width="1.5" filter="url(#laneShadow)"/>
  <rect x="910" y="58" width="772" height="34" rx="14" fill="#4c1d95" opacity="0.08"/>
  <rect x="910" y="80" width="772" height="12" fill="#4c1d95" opacity="0.05"/>
  <text x="1296" y="82" text-anchor="middle" font-size="12.5" font-weight="700" fill="#3b0764" letter-spacing="1">DATA WAREHOUSE &amp; ANALYTICS</text>

  <!-- Sub-dividers inside lane 4 -->
  <line x1="1086" y1="95" x2="1086" y2="478" stroke="#c4b5fd" stroke-width="1" stroke-dasharray="4,3" opacity="0.6"/>
  <line x1="1280" y1="95" x2="1280" y2="478" stroke="#c4b5fd" stroke-width="1" stroke-dasharray="4,3" opacity="0.6"/>
  <text x="998" y="110" text-anchor="middle" font-size="9.5" fill="#7c3aed" font-weight="600" letter-spacing="1.5">TRANSFORM</text>
  <text x="1183" y="110" text-anchor="middle" font-size="9.5" fill="#7c3aed" font-weight="600" letter-spacing="1.5">WAREHOUSE</text>
  <text x="1486" y="110" text-anchor="middle" font-size="9.5" fill="#7c3aed" font-weight="600" letter-spacing="1.5">BI / ANALYTICS</text>

  <!-- ═══════════════════════════════════════════════════════════════ -->
  <!--  DATA SOURCE ICONS (Lane 1)                                    -->
  <!-- ═══════════════════════════════════════════════════════════════ -->

  <!-- === REST API card === -->
  <g transform="translate(38,105)">
    <rect width="120" height="68" rx="10" fill="#fff" stroke="#e2e8f0" stroke-width="1.2" filter="url(#shadow)"/>
    <!-- JSON/curly braces icon in blue -->
    <rect x="8" y="10" width="40" height="40" rx="8" fill="#dbeafe"/>
    <text x="28" y="37" text-anchor="middle" font-size="22" font-weight="800" fill="#2563eb">{}</text>
    <text x="80" y="34" font-size="10.5" font-weight="700" fill="#1e293b">REST API</text>
    <text x="80" y="50" font-size="9" fill="#64748b">JSON / XML</text>
  </g>

  <!-- === CSV Files card === -->
  <g transform="translate(38,187)">
    <rect width="120" height="68" rx="10" fill="#fff" stroke="#e2e8f0" stroke-width="1.2" filter="url(#shadow)"/>
    <rect x="8" y="10" width="40" height="40" rx="8" fill="#dcfce7"/>
    <!-- CSV file icon -->
    <rect x="14" y="14" width="28" height="32" rx="3" fill="#16a34a"/>
    <rect x="14" y="14" width="18" height="8" rx="2" fill="#4ade80"/>
    <text x="28" y="36" text-anchor="middle" font-size="8" font-weight="700" fill="#fff">CSV</text>
    <text x="80" y="34" font-size="10.5" font-weight="700" fill="#1e293b">CSV Files</text>
    <text x="80" y="50" font-size="9" fill="#64748b">Flat / Excel</text>
  </g>

  <!-- === Azure SQL DB card === -->
  <g transform="translate(38,269)">
    <rect width="120" height="68" rx="10" fill="#fff" stroke="#e2e8f0" stroke-width="1.2" filter="url(#shadow)"/>
    <rect x="8" y="10" width="40" height="40" rx="8" fill="#dbeafe"/>
    <!-- Azure SQL official cylinder style -->
    <ellipse cx="28" cy="22" rx="12" ry="4.5" fill="#0078d4"/>
    <rect x="16" y="22" width="24" height="18" fill="#0078d4"/>
    <ellipse cx="28" cy="40" rx="12" ry="4.5" fill="#50abf1"/>
    <ellipse cx="28" cy="22" rx="12" ry="4.5" fill="#50abf1"/>
    <text x="80" y="30" font-size="10.5" font-weight="700" fill="#1e293b">Azure SQL</text>
    <text x="80" y="44" font-size="9" fill="#64748b">Relational DB</text>
  </g>

  <!-- === Cosmos DB (NoSQL) card === -->
  <g transform="translate(38,351)">
    <rect width="120" height="68" rx="10" fill="#fff" stroke="#e2e8f0" stroke-width="1.2" filter="url(#shadow)"/>
    <rect x="8" y="10" width="40" height="40" rx="8" fill="#ede9fe"/>
    <!-- Cosmos DB: azure cosmos icon simplified -->
    <ellipse cx="28" cy="30" rx="14" ry="6" fill="none" stroke="#7c3aed" stroke-width="2"/>
    <ellipse cx="28" cy="30" rx="6" ry="14" fill="none" stroke="#7c3aed" stroke-width="2"/>
    <circle cx="28" cy="30" r="4" fill="#7c3aed"/>
    <text x="80" y="30" font-size="10.5" font-weight="700" fill="#1e293b">Cosmos DB</text>
    <text x="80" y="44" font-size="9" fill="#64748b">NoSQL / API</text>
  </g>

  <!-- === Event Hub card === -->
  <g transform="translate(160,187)">
    <rect width="120" height="68" rx="10" fill="#fff" stroke="#e2e8f0" stroke-width="1.2" filter="url(#shadow)"/>
    <rect x="8" y="10" width="40" height="40" rx="8" fill="#fef3c7"/>
    <!-- Event Hub: lightning / streaming bars -->
    <rect x="15" y="18" width="5" height="24" rx="2" fill="#d97706"/>
    <rect x="23" y="14" width="5" height="28" rx="2" fill="#f59e0b"/>
    <rect x="31" y="20" width="5" height="20" rx="2" fill="#d97706"/>
    <rect x="39" y="16" width="5" height="26" rx="2" fill="#fbbf24"/>
    <text x="80" y="30" font-size="10.5" font-weight="700" fill="#1e293b">Event Hub</text>
    <text x="80" y="44" font-size="9" fill="#64748b">Streaming</text>
  </g>

  <!-- === SaaS / 3rd Party card === -->
  <g transform="translate(160,269)">
    <rect width="120" height="68" rx="10" fill="#fff" stroke="#e2e8f0" stroke-width="1.2" filter="url(#shadow)"/>
    <rect x="8" y="10" width="40" height="40" rx="8" fill="#fee2e2"/>
    <!-- Cloud/globe icon for SaaS -->
    <circle cx="28" cy="30" r="13" fill="none" stroke="#dc2626" stroke-width="2"/>
    <ellipse cx="28" cy="30" rx="6" ry="13" fill="none" stroke="#dc2626" stroke-width="1.5"/>
    <line x1="15" y1="30" x2="41" y2="30" stroke="#dc2626" stroke-width="1.5"/>
    <text x="80" y="30" font-size="10.5" font-weight="700" fill="#1e293b">SaaS APIs</text>
    <text x="80" y="44" font-size="9" fill="#64748b">3rd Party</text>
  </g>

  <!-- ═══ ARROW 1: Extract ═══ -->
  <line x1="308" y1="280" x2="320" y2="280" stroke="#475569" stroke-width="2.2" marker-end="url(#arr)"/>
  <rect x="270" y="264" width="62" height="19" rx="9.5" fill="#334155"/>
  <text x="301" y="278" text-anchor="middle" font-size="10" font-weight="700" fill="#fff" letter-spacing="0.5">Extract</text>

  <!-- ═══════════════════════════════════════════════════════════════ -->
  <!--  AIRFLOW LOGO (Lane 2) — official brand recreation             -->
  <!-- ═══════════════════════════════════════════════════════════════ -->
  <g transform="translate(342,130)">
    <rect width="230" height="220" rx="14" fill="#fff" stroke="#fde68a" stroke-width="1.5" filter="url(#shadow)"/>

    <!-- Official Airflow Logo: the stylized windmill/fan shape in Airflow's brand colors -->
    <!-- Airflow brand colors: #017CEE (blue), #00AD46 (green), #FF5A36 (red/orange) -->
    <g transform="translate(115,105)">
      <!-- Outer ring -->
      <circle r="62" fill="#f8faff" stroke="#e2e8f0" stroke-width="1.5"/>

      <!-- Airflow fan blades — official shape: 3 curved blades, 120° apart -->
      <!-- Blade 1: top (blue) -->
      <path d="M0,-8 C8,-20 30,-48 14,-58 C0,-66 -20,-50 -16,-32 C-12,-18 -6,-10 0,-8 Z"
            fill="#017CEE"/>
      <!-- Blade 2: bottom-right (green) -->
      <path d="M7,3 C18,6 48,16 54,2 C60,-12 46,-30 28,-24 C14,-18 8,-8 7,3 Z"
            fill="#00AD46"/>
      <!-- Blade 3: bottom-left (red) -->
      <path d="M-7,5 C-18,10 -48,18 -54,4 C-62,-10 -46,-30 -28,-24 C-14,-18 -8,-8 -7,5 Z"
            fill="#FF5A36"/>

      <!-- Center hub -->
      <circle r="10" fill="#1a1a2e"/>
      <circle r="5" fill="#fff"/>
    </g>

    <!-- Airflow wordmark -->
    <text x="115" y="183" text-anchor="middle" font-size="16" font-weight="800" fill="#017CEE" letter-spacing="1">Airflow</text>
    <text x="115" y="200" text-anchor="middle" font-size="9.5" fill="#64748b">Apache Airflow</text>

    <!-- Tags -->
    <rect x="14" y="208" width="46" height="13" rx="6.5" fill="#dbeafe" stroke="#93c5fd" stroke-width="0.5"/>
    <text x="37" y="219" text-anchor="middle" font-size="8" fill="#1d4ed8">DAGs</text>
    <rect x="66" y="208" width="52" height="13" rx="6.5" fill="#fef3c7" stroke="#fbbf24" stroke-width="0.5"/>
    <text x="92" y="219" text-anchor="middle" font-size="8" fill="#92400e">Scheduler</text>
    <rect x="124" y="208" width="40" height="13" rx="6.5" fill="#dcfce7" stroke="#86efac" stroke-width="0.5"/>
    <text x="144" y="219" text-anchor="middle" font-size="8" fill="#166534">Retry</text>
    <rect x="170" y="208" width="40" height="13" rx="6.5" fill="#f3e8ff" stroke="#c4b5fd" stroke-width="0.5"/>
    <text x="190" y="219" text-anchor="middle" font-size="8" fill="#6d28d9">SLA</text>
  </g>

  <!-- ═══ ARROW 2: Load ═══ -->
  <line x1="572" y1="280" x2="604" y2="280" stroke="#0078d4" stroke-width="2.5" marker-end="url(#arrBlue)"/>
  <rect x="546" y="263" width="46" height="19" rx="9.5" fill="#0078d4"/>
  <text x="569" y="277" text-anchor="middle" font-size="10" font-weight="700" fill="#fff">Load</text>

  <!-- ═══════════════════════════════════════════════════════════════ -->
  <!--  AZURE DATA LAKE STORAGE (Lane 3)                              -->
  <!-- Official Microsoft Azure ADLS icon recreation                  -->
  <!-- ═══════════════════════════════════════════════════════════════ -->
  <g transform="translate(636,130)">
    <rect width="230" height="220" rx="14" fill="#fff" stroke="#93c5fd" stroke-width="1.5" filter="url(#shadow)"/>

    <!-- ADLS Gen2 official icon: shield/lake shape in Azure blue -->
    <g transform="translate(115,95)">
      <circle r="60" fill="#e8f4ff"/>

      <!-- Azure Data Lake: official shield with wave at bottom -->
      <!-- Main lake body -->
      <path d="M0,-44 C20,-44 44,-28 44,0 C44,28 28,44 0,52 C-28,44 -44,28 -44,0 C-44,-28 -20,-44 0,-44 Z"
            fill="#0078d4"/>
      <!-- Water wave overlay -->
      <path d="M-44,8 C-30,0 -15,16 0,8 C15,0 30,16 44,8 L44,52 C28,60 -28,60 -44,52 Z"
            fill="#50abf1"/>
      <!-- Lighter shimmer on top-left -->
      <path d="M0,-44 C10,-44 22,-38 32,-26"
            fill="none" stroke="#a8d8f8" stroke-width="4" stroke-linecap="round" opacity="0.7"/>
      <!-- Data lines (representing data flow) -->
      <line x1="-20" y1="6" x2="20" y2="6" stroke="#fff" stroke-width="2" opacity="0.5"/>
      <line x1="-14" y1="14" x2="14" y2="14" stroke="#fff" stroke-width="2" opacity="0.4"/>
    </g>

    <text x="115" y="175" text-anchor="middle" font-size="13" font-weight="700" fill="#1e3a8a">Azure Data Lake</text>
    <text x="115" y="191" text-anchor="middle" font-size="10" fill="#1d4ed8" font-weight="600">Storage Gen2</text>
    <text x="115" y="207" text-anchor="middle" font-size="9" fill="#64748b">Raw / Parquet / Delta</text>

    <!-- Tags -->
    <rect x="20" y="212" width="56" height="13" rx="6.5" fill="#dbeafe" stroke="#93c5fd" stroke-width="0.5"/>
    <text x="48" y="223" text-anchor="middle" font-size="8" fill="#1d4ed8">Bronze Layer</text>
    <rect x="82" y="212" width="50" height="13" rx="6.5" fill="#e0f2fe" stroke="#7dd3fc" stroke-width="0.5"/>
    <text x="107" y="223" text-anchor="middle" font-size="8" fill="#0369a1">Parquet</text>
    <rect x="138" y="212" width="36" height="13" rx="6.5" fill="#d1fae5" stroke="#6ee7b7" stroke-width="0.5"/>
    <text x="156" y="223" text-anchor="middle" font-size="8" fill="#065f46">Delta</text>
  </g>

  <!-- ═══ ARROW 3: Transform ═══ -->
  <line x1="866" y1="240" x2="908" y2="240" stroke="#e07b00" stroke-width="2.2" stroke-dasharray="5,3" marker-end="url(#arrOrange)"/>
  <rect x="830" y="224" width="74" height="19" rx="9.5" fill="#b45309"/>
  <text x="867" y="238" text-anchor="middle" font-size="10" font-weight="700" fill="#fff">Transform</text>

  <!-- ═══ ARROW 3b: Copy ═══ -->
  <line x1="866" y1="320" x2="908" y2="320" stroke="#0078d4" stroke-width="2.2" marker-end="url(#arrBlue)"/>
  <rect x="838" y="304" width="48" height="19" rx="9.5" fill="#0078d4"/>
  <text x="862" y="318" text-anchor="middle" font-size="10" font-weight="700" fill="#fff">Copy</text>

  <!-- ═══════════════════════════════════════════════════════════════ -->
  <!--  dbt LOGO — official brand recreation                          -->
  <!-- Official dbt brand: orange/red wordmark with arc icon          -->
  <!-- ═══════════════════════════════════════════════════════════════ -->
  <g transform="translate(920,130)">
    <rect width="155" height="220" rx="14" fill="#fff" stroke="#fecaca" stroke-width="1.5" filter="url(#shadow)"/>

    <g transform="translate(77,95)">
      <circle r="58" fill="#fff7f0"/>

      <!-- dbt official logo: the "d" shape made of two interlocking arrows -->
      <!-- dbt brand color: #FF694A (coral/orange-red) -->
      <!-- Arrow 1: pointing right-up -->
      <path d="M-30,-8 L-30,-28 L10,-28 L10,-38 L38,-18 L10,2 L10,-8 Z"
            fill="#FF694A"/>
      <!-- Arrow 2: pointing left-down -->
      <path d="M30,8 L30,28 L-10,28 L-10,38 L-38,18 L-10,-2 L-10,8 Z"
            fill="#FF694A"/>
    </g>

    <text x="77" y="175" text-anchor="middle" font-size="18" font-weight="800" fill="#FF694A" letter-spacing="1">dbt</text>
    <text x="77" y="191" text-anchor="middle" font-size="9" fill="#64748b">Data Build Tool</text>

    <!-- Tags -->
    <rect x="14" y="200" width="56" height="13" rx="6.5" fill="#fff7ed" stroke="#fed7aa" stroke-width="0.5"/>
    <text x="42" y="211" text-anchor="middle" font-size="8" fill="#c2410c">SQL Models</text>
    <rect x="76" y="200" width="50" height="13" rx="6.5" fill="#fef3c7" stroke="#fde68a" stroke-width="0.5"/>
    <text x="101" y="211" text-anchor="middle" font-size="8" fill="#92400e">Tests</text>
  </g>

  <!-- ═══ ARROW inside lane 4: dbt → Synapse ═══ -->
  <line x1="1077" y1="265" x2="1094" y2="265" stroke="#475569" stroke-width="2" marker-end="url(#arr)"/>

  <!-- ═══════════════════════════════════════════════════════════════ -->
  <!--  AZURE SYNAPSE ANALYTICS — official icon recreation            -->
  <!-- ═══════════════════════════════════════════════════════════════ -->
  <g transform="translate(1096,130)">
    <rect width="172" height="220" rx="14" fill="#fff" stroke="#93c5fd" stroke-width="1.5" filter="url(#shadow)"/>

    <g transform="translate(86,95)">
      <circle r="60" fill="#eff6ff"/>

      <!-- Synapse official icon: Azure Synapse uses a specific "infinity loop" with
           analytics symbols. Official icon is a stylized connected nodes/hexagon cluster -->
      <!-- Primary hexagon -->
      <polygon points="0,-36 31,-18 31,18 0,36 -31,18 -31,-18"
               fill="#0078d4" opacity="0.15" stroke="#0078d4" stroke-width="1.5"/>
      <!-- Inner hex -->
      <polygon points="0,-22 19,-11 19,11 0,22 -19,11 -19,-11"
               fill="#0078d4" opacity="0.3"/>
      <!-- Core hex -->
      <polygon points="0,-12 10,-6 10,6 0,12 -10,6 -10,-6"
               fill="#0078d4"/>

      <!-- Connecting nodes (data analytics nodes around it) -->
      <circle cx="0" cy="-46" r="6" fill="#50abf1"/>
      <circle cx="40" cy="-23" r="6" fill="#50abf1"/>
      <circle cx="40" cy="23" r="6" fill="#50abf1"/>
      <circle cx="0" cy="46" r="6" fill="#50abf1"/>
      <circle cx="-40" cy="23" r="6" fill="#50abf1"/>
      <circle cx="-40" cy="-23" r="6" fill="#50abf1"/>

      <!-- Connection lines -->
      <line x1="0" y1="-36" x2="0" y2="-40" stroke="#0078d4" stroke-width="1.5"/>
      <line x1="31" y1="-18" x2="36" y2="-21" stroke="#0078d4" stroke-width="1.5"/>
      <line x1="31" y1="18" x2="36" y2="21" stroke="#0078d4" stroke-width="1.5"/>
      <line x1="0" y1="36" x2="0" y2="40" stroke="#0078d4" stroke-width="1.5"/>
      <line x1="-31" y1="18" x2="-36" y2="21" stroke="#0078d4" stroke-width="1.5"/>
      <line x1="-31" y1="-18" x2="-36" y2="-21" stroke="#0078d4" stroke-width="1.5"/>
    </g>

    <text x="86" y="174" text-anchor="middle" font-size="12.5" font-weight="700" fill="#1e3a8a">Azure Synapse</text>
    <text x="86" y="190" text-anchor="middle" font-size="10" fill="#2563eb" font-weight="600">Analytics</text>
    <text x="86" y="205" text-anchor="middle" font-size="9" fill="#64748b">Curated / Gold Layer</text>

    <!-- Tags -->
    <rect x="12" y="210" width="54" height="13" rx="6.5" fill="#dbeafe" stroke="#93c5fd" stroke-width="0.5"/>
    <text x="39" y="221" text-anchor="middle" font-size="8" fill="#1d4ed8">SQL Pool</text>
    <rect x="72" y="210" width="58" height="13" rx="6.5" fill="#e0f2fe" stroke="#7dd3fc" stroke-width="0.5"/>
    <text x="101" y="221" text-anchor="middle" font-size="8" fill="#0369a1">Serverless</text>
    <rect x="136" y="210" width="22" height="13" rx="6.5" fill="#fef3c7" stroke="#fbbf24" stroke-width="0.5"/>
    <text x="147" y="221" text-anchor="middle" font-size="8" fill="#92400e">⭐</text>
  </g>

  <!-- ═══ ARROW inside lane 4: Synapse → Power BI ═══ -->
  <line x1="1270" y1="265" x2="1290" y2="265" stroke="#475569" stroke-width="2" marker-end="url(#arr)"/>

  <!-- ═══════════════════════════════════════════════════════════════ -->
  <!--  POWER BI — official logo recreation                           -->
  <!-- Official Power BI: yellow bar chart icon + "Power BI" wordmark -->
  <!-- Brand color: #F2C811 (yellow), #000000 (black wordmark)        -->
  <!-- ═══════════════════════════════════════════════════════════════ -->
  <g transform="translate(1296,115)">
    <rect width="380" height="250" rx="14" fill="#fff" stroke="#fde68a" stroke-width="2" filter="url(#shadow)"/>

    <!-- Official Power BI Icon: Three bars with rounded tops, yellow gradient -->
    <g transform="translate(190,105)">
      <circle r="72" fill="#fffbeb"/>

      <!-- Power BI official bar chart: tall bars in official yellow -->
      <!-- Bar 1 (shortest, left) -->
      <rect x="-52" y="20" width="22" height="30" rx="5" fill="#F2C811"/>
      <!-- Bar 2 (medium) -->
      <rect x="-24" y="0" width="22" height="50" rx="5" fill="#F2C811"/>
      <!-- Bar 3 (tallest, right) -->
      <rect x="4" y="-26" width="22" height="76" rx="5" fill="#F2C811"/>

      <!-- Brighter tops on bars (official Power BI gradient effect) -->
      <rect x="-52" y="20" width="22" height="8" rx="5" fill="#ffe566"/>
      <rect x="-24" y="0" width="22" height="8" rx="5" fill="#ffe566"/>
      <rect x="4" y="-26" width="22" height="8" rx="5" fill="#ffe566"/>

      <!-- Trend line across tops -->
      <polyline points="-41,20 -13,0 15,-26" fill="none" stroke="#c09000" stroke-width="3" stroke-linecap="round" stroke-linejoin="round"/>
      <circle cx="-41" cy="20" r="4" fill="#c09000"/>
      <circle cx="-13" cy="0" r="4" fill="#c09000"/>
      <circle cx="15" cy="-26" r="4" fill="#c09000"/>

      <!-- Power BI "P" letter next to bars (official icon has the "P" superimposed) -->
      <circle cx="36" cy="-10" r="18" fill="#F2C811"/>
      <text x="36" y="-4" text-anchor="middle" font-size="18" font-weight="900" fill="#1a0a00">P</text>
    </g>

    <!-- Official Power BI wordmark -->
    <text x="190" y="196" text-anchor="middle" font-size="15" font-weight="900" fill="#000000" letter-spacing="0.5">Power</text>
    <text x="190" y="213" text-anchor="middle" font-size="15" font-weight="900" fill="#F2C811" letter-spacing="0.5">BI</text>

    <!-- Tags -->
    <rect x="22" y="222" width="62" height="14" rx="7" fill="#fffbeb" stroke="#fbbf24" stroke-width="0.7"/>
    <text x="53" y="233" text-anchor="middle" font-size="8.5" fill="#92400e">Live Reports</text>
    <rect x="90" y="222" width="44" height="14" rx="7" fill="#fffbeb" stroke="#fbbf24" stroke-width="0.7"/>
    <text x="112" y="233" text-anchor="middle" font-size="8.5" fill="#92400e">KPIs</text>
    <rect x="140" y="222" width="78" height="14" rx="7" fill="#fffbeb" stroke="#fbbf24" stroke-width="0.7"/>
    <text x="179" y="233" text-anchor="middle" font-size="8.5" fill="#92400e">Self-Service BI</text>
    <rect x="224" y="222" width="70" height="14" rx="7" fill="#fffbeb" stroke="#fbbf24" stroke-width="0.7"/>
    <text x="259" y="233" text-anchor="middle" font-size="8.5" fill="#92400e">Real-time</text>
    <rect x="300" y="222" width="60" height="14" rx="7" fill="#fffbeb" stroke="#fbbf24" stroke-width="0.7"/>
    <text x="330" y="233" text-anchor="middle" font-size="8.5" fill="#92400e">DAX</text>
  </g>

  <!-- ═══════════════════════════════════════════════════════════════ -->
  <!--  PYTHON card (Ingestion helper)                                -->
  <!-- ═══════════════════════════════════════════════════════════════ -->
  <g transform="translate(342,365)">
    <rect width="230" height="68" rx="10" fill="#fff" stroke="#fde68a" stroke-width="1.2" filter="url(#shadow)"/>

    <!-- Python official logo: two snakes intertwined, blue + yellow -->
    <g transform="translate(40,34)">
      <!-- Python logo: official "two snakes" simplified -->
      <!-- Blue snake body (top) -->
      <path d="M-20,-14 C-20,-14 -14,-18 0,-18 C14,-18 18,-14 18,-10 L18,0 C18,4 14,8 8,8 L-8,8 C-14,8 -18,12 -18,16 L-18,20" 
            fill="#3776AB" stroke="none"/>
      <rect x="-20" y="-18" width="38" height="12" rx="6" fill="#3776AB"/>
      <!-- Yellow snake body (bottom) -->
      <path d="M20,14 C20,14 14,18 0,18 C-14,18 -18,14 -18,10 L-18,0 C-18,-4 -14,-8 -8,-8 L8,-8 C14,-8 18,-12 18,-16 L18,-20"
            fill="#FFD43B" stroke="none"/>
      <rect x="-18" y="6" width="38" height="12" rx="6" fill="#FFD43B"/>
      <!-- Eyes -->
      <circle cx="-10" cy="-12" r="2.5" fill="#fff"/>
      <circle cx="10" cy="12" r="2.5" fill="#fff"/>
    </g>

    <text x="118" y="28" font-size="11" font-weight="700" fill="#1e293b">Python</text>
    <text x="118" y="44" font-size="9" fill="#64748b">pandas · requests · pydantic</text>
    <text x="118" y="58" font-size="8.5" fill="#3776AB">Ingestion Layer</text>
  </g>

  <!-- ═══════════════════════════════════════════════════════════════ -->
  <!--  MEDALLION BADGES                                              -->
  <!-- ═══════════════════════════════════════════════════════════════ -->
  <rect x="638" y="480" width="234" height="20" rx="10" fill="#92400e" opacity="0.1" stroke="#b45309" stroke-width="0.8"/>
  <text x="755" y="495" text-anchor="middle" font-size="9.5" fill="#78350f" font-weight="600" letter-spacing="2">● BRONZE — RAW</text>

  <rect x="920" y="480" width="152" height="20" rx="10" fill="#475569" opacity="0.12" stroke="#64748b" stroke-width="0.8"/>
  <text x="996" y="495" text-anchor="middle" font-size="9.5" fill="#334155" font-weight="600" letter-spacing="2">● SILVER</text>

  <rect x="1092" y="480" width="586" height="20" rx="10" fill="#d97706" opacity="0.12" stroke="#d97706" stroke-width="0.8"/>
  <text x="1385" y="495" text-anchor="middle" font-size="9.5" fill="#78350f" font-weight="600" letter-spacing="2">● GOLD — CURATED · WAREHOUSE · BI</text>

  <!-- ═══ FOOTER ═══ -->
  <line x1="18" y1="518" x2="1682" y2="518" stroke="#cbd5e1" stroke-width="0.8"/>
  <text x="850" y="537" text-anchor="middle" font-size="9.5" fill="#94a3b8" letter-spacing="1">Python  ·  Apache Airflow  ·  Azure ADLS Gen2  ·  dbt  ·  Azure Synapse Analytics  ·  Microsoft Power BI  ·  Medallion Architecture</text>
</svg>
